<svg width="66" height="22" viewBox="0 0 66 22" fill="none" xmlns="http://www.w3.org/2000/svg">
<rect x="0.333344" width="65" height="22" rx="11" fill="#ECFDF3"/>
<circle cx="10.3334" cy="11" r="3" fill="#027A48"/>
<path d="M22.4415 15H21.0437L24.1844 6.27273H25.7057L28.8463 15H27.4486L24.9812 7.85795H24.9131L22.4415 15ZM22.6759 11.5824H27.2099V12.6903H22.6759V11.5824ZM32.656 15.1321C32.0224 15.1321 31.477 14.9886 31.0196 14.7017C30.5651 14.4119 30.2156 14.0128 29.9713 13.5043C29.727 12.9957 29.6048 12.4134 29.6048 11.7571C29.6048 11.0923 29.7298 10.5057 29.9798 9.99716C30.2298 9.4858 30.5821 9.08665 31.0366 8.79972C31.4912 8.51278 32.0267 8.36932 32.6432 8.36932C33.1403 8.36932 33.5835 8.46165 33.9727 8.64631C34.3619 8.82812 34.6759 9.08381 34.9145 9.41335C35.156 9.7429 35.2994 10.1278 35.3449 10.5682H34.1048C34.0366 10.2614 33.8804 9.99716 33.6361 9.77557C33.3946 9.55398 33.0707 9.44318 32.6645 9.44318C32.3094 9.44318 31.9983 9.53693 31.7312 9.72443C31.467 9.90909 31.2611 10.1733 31.1134 10.517C30.9656 10.858 30.8918 11.2614 30.8918 11.7273C30.8918 12.2045 30.9642 12.6165 31.1091 12.9631C31.254 13.3097 31.4585 13.5781 31.7227 13.7685C31.9898 13.9588 32.3037 14.054 32.6645 14.054C32.906 14.054 33.1247 14.0099 33.3207 13.9219C33.5196 13.831 33.6858 13.7017 33.8193 13.5341C33.9557 13.3665 34.0509 13.1648 34.1048 12.929H35.3449C35.2994 13.3523 35.1616 13.7301 34.9315 14.0625C34.7014 14.3949 34.3932 14.6562 34.0068 14.8466C33.6233 15.0369 33.173 15.1321 32.656 15.1321ZM39.7629 8.45455V9.47727H36.1876V8.45455H39.7629ZM37.1464 6.88636H38.4205V13.0781C38.4205 13.3253 38.4575 13.5114 38.5313 13.6364C38.6052 13.7585 38.7004 13.8423 38.8168 13.8878C38.9361 13.9304 39.0654 13.9517 39.2046 13.9517C39.3069 13.9517 39.3964 13.9446 39.4731 13.9304C39.5498 13.9162 39.6094 13.9048 39.6521 13.8963L39.8822 14.9489C39.8083 14.9773 39.7032 15.0057 39.5668 15.0341C39.4305 15.0653 39.26 15.0824 39.0555 15.0852C38.7202 15.0909 38.4077 15.0312 38.118 14.9062C37.8282 14.7812 37.5938 14.5881 37.4148 14.3267C37.2359 14.0653 37.1464 13.7372 37.1464 13.3423V6.88636ZM41.1723 15V8.45455H42.4464V15H41.1723ZM41.8158 7.4446C41.5942 7.4446 41.4038 7.37074 41.2447 7.22301C41.0885 7.07244 41.0104 6.89347 41.0104 6.68608C41.0104 6.47585 41.0885 6.29687 41.2447 6.14915C41.4038 5.99858 41.5942 5.9233 41.8158 5.9233C42.0374 5.9233 42.2263 5.99858 42.3825 6.14915C42.5416 6.29687 42.6212 6.47585 42.6212 6.68608C42.6212 6.89347 42.5416 7.07244 42.3825 7.22301C42.2263 7.37074 42.0374 7.4446 41.8158 7.4446ZM49.76 8.45455L47.3864 15H46.0228L43.645 8.45455H45.0129L46.6705 13.4915H46.7387L48.3921 8.45455H49.76ZM53.5558 15.1321C52.9109 15.1321 52.3555 14.9943 51.8896 14.7188C51.4266 14.4403 51.0686 14.0497 50.8158 13.5469C50.5658 13.0412 50.4408 12.4489 50.4408 11.7699C50.4408 11.0994 50.5658 10.5085 50.8158 9.99716C51.0686 9.4858 51.4209 9.08665 51.8726 8.79972C52.3271 8.51278 52.8584 8.36932 53.4663 8.36932C53.8357 8.36932 54.1936 8.4304 54.5402 8.55256C54.8868 8.67472 55.1979 8.86648 55.4734 9.12784C55.749 9.3892 55.9663 9.72869 56.1254 10.1463C56.2845 10.5611 56.3641 11.0653 56.3641 11.6591V12.1108H51.1609V11.1562H55.1155C55.1155 10.821 55.0473 10.5241 54.9109 10.2656C54.7746 10.0043 54.5828 9.7983 54.3357 9.64773C54.0913 9.49716 53.8044 9.42188 53.4749 9.42188C53.1169 9.42188 52.8044 9.50994 52.5374 9.68608C52.2732 9.85937 52.0686 10.0866 51.9237 10.3679C51.7817 10.6463 51.7107 10.9489 51.7107 11.2756V12.0213C51.7107 12.4588 51.7874 12.831 51.9408 13.1378C52.097 13.4446 52.3143 13.679 52.5928 13.8409C52.8712 14 53.1964 14.0795 53.5686 14.0795C53.8101 14.0795 54.0303 14.0455 54.2291 13.9773C54.428 13.9062 54.5999 13.8011 54.7447 13.6619C54.8896 13.5227 55.0004 13.3509 55.0771 13.1463L56.2831 13.3636C56.1865 13.7187 56.0132 14.0298 55.7632 14.2969C55.516 14.5611 55.205 14.767 54.83 14.9148C54.4578 15.0597 54.0331 15.1321 53.5558 15.1321Z" fill="#027A48"/>
</svg>
