<svg width="138" height="64" viewBox="0 0 138 64" fill="none" xmlns="http://www.w3.org/2000/svg">
    <path
        d="M0 32V0H69H138V32V64H69H0V32ZM108.846 42.7344C112.102 42.235 113.966 41.1603 114.935 39.223C115.584 37.9275 115.791 36.7275 115.877 33.7684L115.952 31.214H108.397H100.842V32.8421V34.4702H106.347H111.853L111.768 35.3398C111.53 37.7868 110.562 38.8429 108.086 39.3586C106.898 39.6061 100.419 39.7204 98.3209 39.5308C95.1689 39.246 93.8938 38.4523 93.4282 36.485C93.1625 35.3624 93.1648 28.8523 93.4313 27.7262C93.7795 26.2554 94.7007 25.3912 96.3431 24.9948C97.5949 24.6927 100.493 24.5556 104.113 24.6274C107.557 24.6956 108.493 24.7855 109.578 25.1519C110.756 25.5498 111.543 26.3766 111.827 27.5157L111.966 28.0702H113.895H115.825L115.745 27.5368C115.481 25.7665 114.882 24.4764 113.877 23.5093C112.859 22.5298 111.859 22.0683 109.839 21.6456C108.825 21.4335 108.242 21.4092 103.113 21.3649C98.4694 21.3249 97.2521 21.347 96.0869 21.4927C91.5646 22.058 89.6691 23.7467 89.1577 27.6658C88.9997 28.8769 89.0077 35.3912 89.1688 36.6596C89.3976 38.4613 90.1375 40.1574 91.0388 40.9465C92.2633 42.0184 94.3983 42.6736 97.3946 42.8968C99.4752 43.0518 107.521 42.9377 108.846 42.7344ZM41.2326 42.6641C42.8708 42.5247 44.0753 42.1587 45.1121 41.4851C46.3638 40.6719 47.17 39.4922 47.5015 37.9889C48.0569 35.47 47.2513 33.3095 45.3063 32.1015C44.9311 31.8685 44.5613 31.6553 44.4844 31.6278C44.4062 31.5999 44.6394 31.3217 45.0134 30.9967C45.4936 30.5793 45.8065 30.1737 46.1234 29.5574C46.5631 28.7026 46.5648 28.6941 46.5648 27.29C46.5648 26.1005 46.5217 25.7609 46.2888 25.1127C45.72 23.5296 44.3645 22.3084 42.5041 21.7031L41.5402 21.3895L31.8709 21.3577L22.2015 21.3259V32.0524V42.7789L31.0529 42.7779C36.0226 42.7774 40.4868 42.7274 41.2326 42.664V42.6641ZM26.2913 36.4319V33.4533L33.7405 33.4845L41.1897 33.5158L41.7913 33.8207C43.7242 34.8003 44.0441 37.3161 42.407 38.6625C41.4784 39.4263 41.6649 39.4105 33.5736 39.4105H26.2913V36.4319ZM26.2913 27.4015V24.5895L33.0978 24.5901C37.3699 24.5906 40.0643 24.6335 40.334 24.7055C41.5924 25.0413 42.4497 26.0727 42.4587 27.2615C42.4679 28.496 41.8863 29.388 40.7505 29.8814L40.138 30.1474L33.2146 30.1804L26.2913 30.2135V27.4015ZM55.7635 35.3965L55.7959 28.014L56.1669 27.2617C56.7868 26.0042 57.9174 25.1281 59.4183 24.7423C60.169 24.5494 61.8226 24.5494 62.5732 24.7423C64.5839 25.2592 65.9634 26.7393 66.2505 28.6877C66.3162 29.134 66.3672 32.3486 66.3686 36.1263L66.3709 42.7789H68.3573H70.3438L70.3458 35.9579C70.3474 30.5324 70.3814 28.9845 70.5121 28.3923C71.0433 25.984 72.9503 24.5921 75.7189 24.5921C78.2471 24.5921 80.0876 25.7757 80.7464 27.825C80.9659 28.5079 80.9771 28.8903 80.9771 35.661V42.7789H83.0267H85.0762L85.0411 35.2281L85.0061 27.6772L84.734 26.8912C84.2901 25.6087 83.7138 24.7264 82.6678 23.7279C81.8516 22.9488 81.5234 22.7256 80.4946 22.25C79.8281 21.9419 78.941 21.6055 78.5233 21.5023C77.4804 21.2449 75.1264 21.1554 73.9941 21.3302C72.1814 21.61 70.2859 22.4692 69.0106 23.5892L68.3573 24.1629L67.7041 23.5892C64.7784 21.0199 59.9613 20.4567 56.2061 22.2449C55.1615 22.7424 54.8314 22.9718 53.9721 23.7975C53.1551 24.5825 52.8717 24.9493 52.4779 25.7309C51.6493 27.3759 51.6521 27.3436 51.6498 35.5088L51.6478 42.7789H53.6894H55.7311L55.7635 35.3965Z"
        fill="#222222" />
</svg>