<svg width="17" height="17" viewBox="0 0 17 17" fill="none" xmlns="http://www.w3.org/2000/svg">
<path fill-rule="evenodd" clip-rule="evenodd" d="M13.3848 0.833947C13.1895 0.638684 12.873 0.638684 12.6777 0.833947L4.6777 8.83395C4.61761 8.89403 4.57383 8.96844 4.55049 9.05014L3.55049 12.5501C3.5006 12.7247 3.5493 12.9127 3.6777 13.0411C3.8061 13.1695 3.99401 13.2181 4.16861 13.1683L7.66861 12.1683C7.75031 12.1449 7.82472 12.1011 7.8848 12.0411L15.8848 4.04105C16.0801 3.84579 16.0801 3.52921 15.8848 3.33395L13.3848 0.833947ZM4.75926 11.9595L5.47642 9.44944L13.0312 1.89461L14.8241 3.6875L7.26931 11.2423L4.75926 11.9595ZM1.03125 4.1875C1.03125 3.91164 1.25539 3.6875 1.53125 3.6875H6.53125C6.80739 3.6875 7.03125 3.46364 7.03125 3.1875C7.03125 2.91136 6.80739 2.6875 6.53125 2.6875H1.53125C0.703108 2.6875 0.03125 3.35936 0.03125 4.1875V15.1875C0.03125 16.0156 0.703108 16.6875 1.53125 16.6875H12.5312C13.3594 16.6875 14.0312 16.0156 14.0312 15.1875V10.1875C14.0312 9.91136 13.8074 9.6875 13.5312 9.6875C13.2551 9.6875 13.0312 9.91136 13.0312 10.1875V15.1875C13.0312 15.4634 12.8071 15.6875 12.5312 15.6875H1.53125C1.25539 15.6875 1.03125 15.4634 1.03125 15.1875V4.1875Z" fill="#262626"/>
</svg>