<svg width="56" height="22" viewBox="0 0 56 22" fill="none" xmlns="http://www.w3.org/2000/svg">
<rect x="0.142822" width="55" height="22" rx="11" fill="#ECFDF3"/>
<circle cx="10.1428" cy="11" r="3" fill="#027A48"/>
<path d="M21.3419 15V6.27273H22.6586V10.0653H27.0095V6.27273H28.3305V15H27.0095V11.1946H22.6586V15H21.3419ZM30.1458 15V8.45455H31.42V15H30.1458ZM30.7893 7.4446C30.5677 7.4446 30.3774 7.37074 30.2183 7.22301C30.062 7.07244 29.9839 6.89347 29.9839 6.68608C29.9839 6.47585 30.062 6.29687 30.2183 6.14915C30.3774 5.99858 30.5677 5.9233 30.7893 5.9233C31.0109 5.9233 31.1998 5.99858 31.3561 6.14915C31.5152 6.29687 31.5947 6.47585 31.5947 6.68608C31.5947 6.89347 31.5152 7.07244 31.3561 7.22301C31.1998 7.37074 31.0109 7.4446 30.7893 7.4446ZM35.8784 17.5909C35.3586 17.5909 34.9111 17.5227 34.5361 17.3864C34.164 17.25 33.86 17.0696 33.6242 16.8452C33.3884 16.6207 33.2122 16.375 33.0958 16.108L34.1909 15.6562C34.2676 15.7812 34.3699 15.9134 34.4978 16.0526C34.6284 16.1946 34.8046 16.3153 35.0262 16.4148C35.2506 16.5142 35.539 16.5639 35.8912 16.5639C36.3742 16.5639 36.7733 16.446 37.0887 16.2102C37.404 15.9773 37.5617 15.6051 37.5617 15.0938V13.8068H37.4807C37.404 13.946 37.2932 14.1009 37.1483 14.2713C37.0063 14.4418 36.8103 14.5895 36.5603 14.7145C36.3103 14.8395 35.985 14.902 35.5844 14.902C35.0674 14.902 34.6015 14.7812 34.1867 14.5398C33.7747 14.2955 33.448 13.9361 33.2066 13.4616C32.9679 12.9844 32.8486 12.3977 32.8486 11.7017C32.8486 11.0057 32.9665 10.4091 33.2023 9.91193C33.4409 9.41477 33.7676 9.03409 34.1824 8.76989C34.5972 8.50284 35.0674 8.36932 35.5929 8.36932C35.9992 8.36932 36.3273 8.4375 36.5773 8.57386C36.8273 8.70739 37.0219 8.86364 37.1611 9.04261C37.3032 9.22159 37.4125 9.37926 37.4892 9.51562H37.583V8.45455H38.8316V15.1449C38.8316 15.7074 38.7009 16.169 38.4395 16.5298C38.1782 16.8906 37.8245 17.1577 37.3784 17.331C36.9353 17.5043 36.4353 17.5909 35.8784 17.5909ZM35.8657 13.8452C36.2321 13.8452 36.5418 13.7599 36.7946 13.5895C37.0503 13.4162 37.2435 13.169 37.3742 12.848C37.5077 12.5241 37.5745 12.1364 37.5745 11.6847C37.5745 11.2443 37.5091 10.8565 37.3784 10.5213C37.2478 10.1861 37.056 9.92472 36.8032 9.73722C36.5503 9.54687 36.2378 9.4517 35.8657 9.4517C35.4821 9.4517 35.1625 9.55114 34.9068 9.75C34.6512 9.94602 34.458 10.2131 34.3273 10.5511C34.1995 10.8892 34.1355 11.267 34.1355 11.6847C34.1355 12.1136 34.2009 12.4901 34.3316 12.8139C34.4622 13.1378 34.6554 13.3906 34.9111 13.5724C35.1696 13.7543 35.4878 13.8452 35.8657 13.8452ZM41.8145 11.1136V15H40.5404V6.27273H41.7975V9.51989H41.8784C42.0318 9.16761 42.2662 8.88778 42.5816 8.6804C42.8969 8.47301 43.3088 8.36932 43.8174 8.36932C44.2662 8.36932 44.6583 8.46165 44.9935 8.64631C45.3316 8.83097 45.5929 9.10653 45.7776 9.47301C45.9651 9.83665 46.0588 10.2912 46.0588 10.8366V15H44.7847V10.9901C44.7847 10.5099 44.6611 10.1378 44.414 9.87358C44.1668 9.60653 43.823 9.47301 43.3827 9.47301C43.0816 9.47301 42.8117 9.53693 42.573 9.66477C42.3372 9.79261 42.1512 9.98011 42.0148 10.2273C41.8813 10.4716 41.8145 10.767 41.8145 11.1136Z" fill="#027A48"/>
</svg>
