<svg width="90" height="22" viewBox="0 0 90 22" fill="none" xmlns="http://www.w3.org/2000/svg">
<g style="mix-blend-mode:multiply">
<rect x="0.333344" width="89" height="22" rx="11" fill="#FEF3F2"/>
<circle cx="10.3334" cy="11" r="3" fill="#F04438"/>
<path d="M28.8303 6.27273V15H27.6201L23.184 8.59943H23.1031V15H21.7863V6.27273H23.005L27.4454 12.6818H27.5263V6.27273H28.8303ZM33.406 15.1321C32.7923 15.1321 32.2568 14.9915 31.7994 14.7102C31.342 14.429 30.9869 14.0355 30.7341 13.5298C30.4812 13.0241 30.3548 12.4332 30.3548 11.7571C30.3548 11.0781 30.4812 10.4844 30.7341 9.97585C30.9869 9.46733 31.342 9.07244 31.7994 8.79119C32.2568 8.50994 32.7923 8.36932 33.406 8.36932C34.0196 8.36932 34.5551 8.50994 35.0125 8.79119C35.4699 9.07244 35.825 9.46733 36.0778 9.97585C36.3307 10.4844 36.4571 11.0781 36.4571 11.7571C36.4571 12.4332 36.3307 13.0241 36.0778 13.5298C35.825 14.0355 35.4699 14.429 35.0125 14.7102C34.5551 14.9915 34.0196 15.1321 33.406 15.1321ZM33.4102 14.0625C33.808 14.0625 34.1375 13.9574 34.3989 13.7472C34.6602 13.5369 34.8534 13.2571 34.9784 12.9077C35.1062 12.5582 35.1702 12.1733 35.1702 11.7528C35.1702 11.3352 35.1062 10.9517 34.9784 10.6023C34.8534 10.25 34.6602 9.96733 34.3989 9.75426C34.1375 9.54119 33.808 9.43466 33.4102 9.43466C33.0097 9.43466 32.6773 9.54119 32.4131 9.75426C32.1517 9.96733 31.9571 10.25 31.8293 10.6023C31.7043 10.9517 31.6418 11.3352 31.6418 11.7528C31.6418 12.1733 31.7043 12.5582 31.8293 12.9077C31.9571 13.2571 32.1517 13.5369 32.4131 13.7472C32.6773 13.9574 33.0097 14.0625 33.4102 14.0625ZM40.9347 8.45455V9.47727H37.3594V8.45455H40.9347ZM38.3183 6.88636H39.5924V13.0781C39.5924 13.3253 39.6293 13.5114 39.7032 13.6364C39.7771 13.7585 39.8722 13.8423 39.9887 13.8878C40.108 13.9304 40.2373 13.9517 40.3765 13.9517C40.4788 13.9517 40.5683 13.9446 40.645 13.9304C40.7217 13.9162 40.7813 13.9048 40.8239 13.8963L41.054 14.9489C40.9802 14.9773 40.8751 15.0057 40.7387 15.0341C40.6023 15.0653 40.4319 15.0824 40.2273 15.0852C39.8921 15.0909 39.5796 15.0312 39.2898 14.9062C39.0001 14.7812 38.7657 14.5881 38.5867 14.3267C38.4077 14.0653 38.3183 13.7372 38.3183 13.3423V6.88636ZM46.3594 15H44.9617L48.1023 6.27273H49.6236L52.7643 15H51.3665L48.8992 7.85795H48.831L46.3594 15ZM46.5938 11.5824H51.1279V12.6903H46.5938V11.5824ZM56.5739 15.1321C55.9404 15.1321 55.395 14.9886 54.9376 14.7017C54.483 14.4119 54.1336 14.0128 53.8893 13.5043C53.645 12.9957 53.5228 12.4134 53.5228 11.7571C53.5228 11.0923 53.6478 10.5057 53.8978 9.99716C54.1478 9.4858 54.5001 9.08665 54.9546 8.79972C55.4092 8.51278 55.9447 8.36932 56.5611 8.36932C57.0583 8.36932 57.5015 8.46165 57.8907 8.64631C58.2799 8.82812 58.5938 9.08381 58.8325 9.41335C59.0739 9.7429 59.2174 10.1278 59.2629 10.5682H58.0228C57.9546 10.2614 57.7984 9.99716 57.554 9.77557C57.3126 9.55398 56.9887 9.44318 56.5825 9.44318C56.2273 9.44318 55.9163 9.53693 55.6492 9.72443C55.385 9.90909 55.179 10.1733 55.0313 10.517C54.8836 10.858 54.8097 11.2614 54.8097 11.7273C54.8097 12.2045 54.8822 12.6165 55.0271 12.9631C55.1719 13.3097 55.3765 13.5781 55.6407 13.7685C55.9077 13.9588 56.2217 14.054 56.5825 14.054C56.8239 14.054 57.0427 14.0099 57.2387 13.9219C57.4376 13.831 57.6038 13.7017 57.7373 13.5341C57.8736 13.3665 57.9688 13.1648 58.0228 12.929H59.2629C59.2174 13.3523 59.0796 13.7301 58.8495 14.0625C58.6194 14.3949 58.3111 14.6562 57.9248 14.8466C57.5413 15.0369 57.091 15.1321 56.5739 15.1321ZM63.6808 8.45455V9.47727H60.1055V8.45455H63.6808ZM61.0643 6.88636H62.3385V13.0781C62.3385 13.3253 62.3754 13.5114 62.4493 13.6364C62.5232 13.7585 62.6183 13.8423 62.7348 13.8878C62.8541 13.9304 62.9834 13.9517 63.1226 13.9517C63.2249 13.9517 63.3143 13.9446 63.391 13.9304C63.4678 13.9162 63.5274 13.9048 63.57 13.8963L63.8001 14.9489C63.7263 14.9773 63.6212 15.0057 63.4848 15.0341C63.3484 15.0653 63.178 15.0824 62.9734 15.0852C62.6382 15.0909 62.3257 15.0312 62.0359 14.9062C61.7462 14.7812 61.5118 14.5881 61.3328 14.3267C61.1538 14.0653 61.0643 13.7372 61.0643 13.3423V6.88636ZM65.0903 15V8.45455H66.3644V15H65.0903ZM65.7337 7.4446C65.5121 7.4446 65.3218 7.37074 65.1627 7.22301C65.0065 7.07244 64.9283 6.89347 64.9283 6.68608C64.9283 6.47585 65.0065 6.29687 65.1627 6.14915C65.3218 5.99858 65.5121 5.9233 65.7337 5.9233C65.9553 5.9233 66.1442 5.99858 66.3005 6.14915C66.4596 6.29687 66.5391 6.47585 66.5391 6.68608C66.5391 6.89347 66.4596 7.07244 66.3005 7.22301C66.1442 7.37074 65.9553 7.4446 65.7337 7.4446ZM73.678 8.45455L71.3044 15H69.9408L67.5629 8.45455H68.9308L70.5885 13.4915H70.6567L72.3101 8.45455H73.678ZM77.4738 15.1321C76.8289 15.1321 76.2735 14.9943 75.8076 14.7188C75.3445 14.4403 74.9866 14.0497 74.7337 13.5469C74.4837 13.0412 74.3587 12.4489 74.3587 11.7699C74.3587 11.0994 74.4837 10.5085 74.7337 9.99716C74.9866 9.4858 75.3388 9.08665 75.7906 8.79972C76.2451 8.51278 76.7763 8.36932 77.3843 8.36932C77.7536 8.36932 78.1116 8.4304 78.4582 8.55256C78.8048 8.67472 79.1158 8.86648 79.3914 9.12784C79.667 9.3892 79.8843 9.72869 80.0434 10.1463C80.2025 10.5611 80.282 11.0653 80.282 11.6591V12.1108H75.0789V11.1562H79.0335C79.0335 10.821 78.9653 10.5241 78.8289 10.2656C78.6925 10.0043 78.5008 9.7983 78.2536 9.64773C78.0093 9.49716 77.7224 9.42188 77.3928 9.42188C77.0349 9.42188 76.7224 9.50994 76.4553 9.68608C76.1911 9.85937 75.9866 10.0866 75.8417 10.3679C75.6996 10.6463 75.6286 10.9489 75.6286 11.2756V12.0213C75.6286 12.4588 75.7053 12.831 75.8587 13.1378C76.015 13.4446 76.2323 13.679 76.5107 13.8409C76.7891 14 77.1144 14.0795 77.4866 14.0795C77.7281 14.0795 77.9482 14.0455 78.1471 13.9773C78.346 13.9062 78.5178 13.8011 78.6627 13.6619C78.8076 13.5227 78.9184 13.3509 78.9951 13.1463L80.2011 13.3636C80.1045 13.7187 79.9312 14.0298 79.6812 14.2969C79.434 14.5611 79.1229 14.767 78.7479 14.9148C78.3758 15.0597 77.9511 15.1321 77.4738 15.1321Z" fill="#F04438"/>
</g>
</svg>
