<svg width="24" height="22" viewBox="0 0 24 22" fill="none" xmlns="http://www.w3.org/2000/svg">
<path d="M5.125 11V3.4375C5.125 3.25516 5.19743 3.0803 5.32636 2.95136C5.4553 2.82243 5.63016 2.75 5.8125 2.75H14.0625L18.875 7.5625V11" stroke="black" stroke-linecap="round" stroke-linejoin="round"/>
<path d="M14.0625 2.75V7.5625H18.875" stroke="black" stroke-linecap="round" stroke-linejoin="round"/>
<path d="M1.71106 19C1.38267 19 1.07733 18.9361 0.795038 18.8083C0.512742 18.6806 0.282296 18.4972 0.103701 18.2583C0.0345669 18.1583 0 18.0611 0 17.9667C0 17.8278 0.0547309 17.7111 0.164193 17.6167C0.279415 17.5222 0.391758 17.475 0.50122 17.475C0.587637 17.475 0.671173 17.5 0.751829 17.55C0.838246 17.6 0.916022 17.6583 0.985156 17.725C1.10038 17.825 1.21272 17.8972 1.32218 17.9417C1.43741 17.9806 1.56703 18 1.71106 18C1.88389 18 2.04521 17.9583 2.195 17.875C2.34478 17.7917 2.46577 17.6806 2.55795 17.5417C2.65013 17.4028 2.69622 17.2528 2.69622 17.0917V13.5917C2.69622 13.4472 2.75095 13.3278 2.86041 13.2333C2.96987 13.1333 3.09661 13.0833 3.24064 13.0833C3.40196 13.0833 3.53158 13.1333 3.62952 13.2333C3.72746 13.3278 3.77643 13.4472 3.77643 13.5917V17.0917C3.77643 17.4306 3.68425 17.7444 3.49989 18.0333C3.31554 18.3222 3.06781 18.5556 2.75671 18.7333C2.44561 18.9111 2.09706 19 1.71106 19Z" fill="black"/>
<path d="M7.73512 19C7.33184 19 6.96889 18.9528 6.64627 18.8583C6.32364 18.7583 6.01542 18.5861 5.7216 18.3417C5.64671 18.2806 5.5891 18.2111 5.54877 18.1333C5.50844 18.0556 5.48828 17.9778 5.48828 17.9C5.48828 17.7722 5.53437 17.6611 5.62654 17.5667C5.72448 17.4667 5.84547 17.4167 5.98949 17.4167C6.09896 17.4167 6.1969 17.45 6.28331 17.5167C6.50224 17.6889 6.71828 17.8194 6.93144 17.9083C7.15037 17.9972 7.41826 18.0417 7.73512 18.0417C7.94828 18.0417 8.14416 18.0111 8.32276 17.95C8.50135 17.8833 8.64538 17.7972 8.75484 17.6917C8.86431 17.5806 8.91904 17.4556 8.91904 17.3167C8.91904 17.15 8.86719 17.0083 8.76349 16.8917C8.65979 16.775 8.50135 16.6778 8.28819 16.6C8.07503 16.5167 7.80426 16.4528 7.47587 16.4083C7.16477 16.3639 6.89112 16.2972 6.65491 16.2083C6.4187 16.1139 6.21994 15.9972 6.05863 15.8583C5.90308 15.7139 5.78497 15.5472 5.70432 15.3583C5.62366 15.1639 5.58334 14.9472 5.58334 14.7083C5.58334 14.3472 5.67839 14.0389 5.86851 13.7833C6.06439 13.5278 6.32652 13.3333 6.65491 13.2C6.98329 13.0667 7.34624 13 7.74376 13C8.11824 13 8.46391 13.0556 8.78077 13.1667C9.10339 13.2722 9.36552 13.4083 9.56716 13.575C9.73424 13.7028 9.81778 13.85 9.81778 14.0167C9.81778 14.1389 9.76881 14.25 9.67087 14.35C9.57293 14.45 9.4577 14.5 9.3252 14.5C9.23878 14.5 9.161 14.475 9.09187 14.425C8.99969 14.3472 8.87583 14.275 8.72028 14.2083C8.56473 14.1361 8.40053 14.0778 8.2277 14.0333C8.05487 13.9833 7.89355 13.9583 7.74376 13.9583C7.49603 13.9583 7.28575 13.9889 7.11292 14.05C6.94585 14.1111 6.8191 14.1944 6.73268 14.3C6.64627 14.4056 6.60306 14.5278 6.60306 14.6667C6.60306 14.8333 6.65203 14.9722 6.74997 15.0833C6.85367 15.1889 7.00058 15.275 7.19069 15.3417C7.38081 15.4028 7.60838 15.4583 7.87339 15.5083C8.21906 15.5694 8.52152 15.6417 8.78077 15.725C9.04578 15.8083 9.2647 15.9167 9.43754 16.05C9.61037 16.1778 9.74 16.3417 9.82642 16.5417C9.91283 16.7361 9.95604 16.975 9.95604 17.2583C9.95604 17.6194 9.85234 17.9306 9.64494 18.1917C9.43754 18.4528 9.16389 18.6528 8.82398 18.7917C8.48983 18.9306 8.12688 19 7.73512 19Z" fill="black"/>
<path d="M17.2325 16C17.2325 16.4167 17.1605 16.8056 17.0164 17.1667C16.8724 17.5278 16.6679 17.8472 16.4029 18.125C16.1436 18.3972 15.8325 18.6111 15.4696 18.7667C15.1124 18.9222 14.7206 19 14.2943 19C13.868 19 13.4762 18.9222 13.119 18.7667C12.7618 18.6111 12.4507 18.3972 12.1857 18.125C11.9265 17.8472 11.7248 17.5278 11.5808 17.1667C11.4368 16.8056 11.3648 16.4167 11.3648 16C11.3648 15.5833 11.4368 15.1944 11.5808 14.8333C11.7248 14.4722 11.9265 14.1556 12.1857 13.8833C12.4507 13.6056 12.7618 13.3889 13.119 13.2333C13.4762 13.0778 13.868 13 14.2943 13C14.7206 13 15.1124 13.0778 15.4696 13.2333C15.8325 13.3889 16.1436 13.6056 16.4029 13.8833C16.6679 14.1556 16.8724 14.4722 17.0164 14.8333C17.1605 15.1944 17.2325 15.5833 17.2325 16ZM16.1091 16C16.1091 15.6278 16.0313 15.2917 15.8757 14.9917C15.7202 14.6861 15.507 14.4444 15.2362 14.2667C14.9655 14.0889 14.6515 14 14.2943 14C13.9371 14 13.6231 14.0889 13.3523 14.2667C13.0816 14.4444 12.8684 14.6833 12.7129 14.9833C12.5631 15.2833 12.4882 15.6222 12.4882 16C12.4882 16.3722 12.5631 16.7111 12.7129 17.0167C12.8684 17.3167 13.0816 17.5556 13.3523 17.7333C13.6231 17.9111 13.9371 18 14.2943 18C14.6515 18 14.9655 17.9111 15.2362 17.7333C15.507 17.5556 15.7202 17.3167 15.8757 17.0167C16.0313 16.7111 16.1091 16.3722 16.1091 16Z" fill="black"/>
<path d="M23.5333 13.0833C23.6716 13.0833 23.784 13.1278 23.8704 13.2167C23.9568 13.3056 24 13.4167 24 13.55V18.4083C24 18.5528 23.9481 18.675 23.8444 18.775C23.7465 18.8694 23.6226 18.9167 23.4729 18.9167C23.398 18.9167 23.3202 18.9056 23.2395 18.8833C23.1646 18.8556 23.107 18.8194 23.0667 18.775L19.6705 14.6167L19.8952 14.4833V18.45C19.8952 18.5833 19.8491 18.6944 19.7569 18.7833C19.6705 18.8722 19.5553 18.9167 19.4112 18.9167C19.273 18.9167 19.1606 18.8722 19.0742 18.7833C18.9878 18.6944 18.9446 18.5833 18.9446 18.45V13.5917C18.9446 13.4472 18.9936 13.3278 19.0915 13.2333C19.1952 13.1333 19.322 13.0833 19.4717 13.0833C19.5524 13.0833 19.6359 13.1 19.7223 13.1333C19.8088 13.1611 19.8721 13.2056 19.9125 13.2667L23.205 17.3167L23.0581 17.4167V13.55C23.0581 13.4167 23.1013 13.3056 23.1877 13.2167C23.2741 13.1278 23.3893 13.0833 23.5333 13.0833Z" fill="black"/>
<path d="M1.71106 19C1.38267 19 1.07733 18.9361 0.795038 18.8083C0.512742 18.6806 0.282296 18.4972 0.103701 18.2583C0.0345669 18.1583 0 18.0611 0 17.9667C0 17.8278 0.0547309 17.7111 0.164193 17.6167C0.279415 17.5222 0.391758 17.475 0.50122 17.475C0.587637 17.475 0.671173 17.5 0.751829 17.55C0.838246 17.6 0.916022 17.6583 0.985156 17.725C1.10038 17.825 1.21272 17.8972 1.32218 17.9417C1.43741 17.9806 1.56703 18 1.71106 18C1.88389 18 2.04521 17.9583 2.195 17.875C2.34478 17.7917 2.46577 17.6806 2.55795 17.5417C2.65013 17.4028 2.69622 17.2528 2.69622 17.0917V13.5917C2.69622 13.4472 2.75095 13.3278 2.86041 13.2333C2.96987 13.1333 3.09661 13.0833 3.24064 13.0833C3.40196 13.0833 3.53158 13.1333 3.62952 13.2333C3.72746 13.3278 3.77643 13.4472 3.77643 13.5917V17.0917C3.77643 17.4306 3.68425 17.7444 3.49989 18.0333C3.31554 18.3222 3.06781 18.5556 2.75671 18.7333C2.44561 18.9111 2.09706 19 1.71106 19Z" stroke="black"/>
<path d="M7.73512 19C7.33184 19 6.96889 18.9528 6.64627 18.8583C6.32364 18.7583 6.01542 18.5861 5.7216 18.3417C5.64671 18.2806 5.5891 18.2111 5.54877 18.1333C5.50844 18.0556 5.48828 17.9778 5.48828 17.9C5.48828 17.7722 5.53437 17.6611 5.62654 17.5667C5.72448 17.4667 5.84547 17.4167 5.98949 17.4167C6.09896 17.4167 6.1969 17.45 6.28331 17.5167C6.50224 17.6889 6.71828 17.8194 6.93144 17.9083C7.15037 17.9972 7.41826 18.0417 7.73512 18.0417C7.94828 18.0417 8.14416 18.0111 8.32276 17.95C8.50135 17.8833 8.64538 17.7972 8.75484 17.6917C8.86431 17.5806 8.91904 17.4556 8.91904 17.3167C8.91904 17.15 8.86719 17.0083 8.76349 16.8917C8.65979 16.775 8.50135 16.6778 8.28819 16.6C8.07503 16.5167 7.80426 16.4528 7.47587 16.4083C7.16477 16.3639 6.89112 16.2972 6.65491 16.2083C6.4187 16.1139 6.21994 15.9972 6.05863 15.8583C5.90308 15.7139 5.78497 15.5472 5.70432 15.3583C5.62366 15.1639 5.58334 14.9472 5.58334 14.7083C5.58334 14.3472 5.67839 14.0389 5.86851 13.7833C6.06439 13.5278 6.32652 13.3333 6.65491 13.2C6.98329 13.0667 7.34624 13 7.74376 13C8.11824 13 8.46391 13.0556 8.78077 13.1667C9.10339 13.2722 9.36552 13.4083 9.56716 13.575C9.73424 13.7028 9.81778 13.85 9.81778 14.0167C9.81778 14.1389 9.76881 14.25 9.67087 14.35C9.57293 14.45 9.4577 14.5 9.3252 14.5C9.23878 14.5 9.161 14.475 9.09187 14.425C8.99969 14.3472 8.87583 14.275 8.72028 14.2083C8.56473 14.1361 8.40053 14.0778 8.2277 14.0333C8.05487 13.9833 7.89355 13.9583 7.74376 13.9583C7.49603 13.9583 7.28575 13.9889 7.11292 14.05C6.94585 14.1111 6.8191 14.1944 6.73268 14.3C6.64627 14.4056 6.60306 14.5278 6.60306 14.6667C6.60306 14.8333 6.65203 14.9722 6.74997 15.0833C6.85367 15.1889 7.00058 15.275 7.19069 15.3417C7.38081 15.4028 7.60838 15.4583 7.87339 15.5083C8.21906 15.5694 8.52152 15.6417 8.78077 15.725C9.04578 15.8083 9.2647 15.9167 9.43754 16.05C9.61037 16.1778 9.74 16.3417 9.82642 16.5417C9.91283 16.7361 9.95604 16.975 9.95604 17.2583C9.95604 17.6194 9.85234 17.9306 9.64494 18.1917C9.43754 18.4528 9.16389 18.6528 8.82398 18.7917C8.48983 18.9306 8.12688 19 7.73512 19Z" stroke="black"/>
<path d="M17.2325 16C17.2325 16.4167 17.1605 16.8056 17.0164 17.1667C16.8724 17.5278 16.6679 17.8472 16.4029 18.125C16.1436 18.3972 15.8325 18.6111 15.4696 18.7667C15.1124 18.9222 14.7206 19 14.2943 19C13.868 19 13.4762 18.9222 13.119 18.7667C12.7618 18.6111 12.4507 18.3972 12.1857 18.125C11.9265 17.8472 11.7248 17.5278 11.5808 17.1667C11.4368 16.8056 11.3648 16.4167 11.3648 16C11.3648 15.5833 11.4368 15.1944 11.5808 14.8333C11.7248 14.4722 11.9265 14.1556 12.1857 13.8833C12.4507 13.6056 12.7618 13.3889 13.119 13.2333C13.4762 13.0778 13.868 13 14.2943 13C14.7206 13 15.1124 13.0778 15.4696 13.2333C15.8325 13.3889 16.1436 13.6056 16.4029 13.8833C16.6679 14.1556 16.8724 14.4722 17.0164 14.8333C17.1605 15.1944 17.2325 15.5833 17.2325 16ZM16.1091 16C16.1091 15.6278 16.0313 15.2917 15.8757 14.9917C15.7202 14.6861 15.507 14.4444 15.2362 14.2667C14.9655 14.0889 14.6515 14 14.2943 14C13.9371 14 13.6231 14.0889 13.3523 14.2667C13.0816 14.4444 12.8684 14.6833 12.7129 14.9833C12.5631 15.2833 12.4882 15.6222 12.4882 16C12.4882 16.3722 12.5631 16.7111 12.7129 17.0167C12.8684 17.3167 13.0816 17.5556 13.3523 17.7333C13.6231 17.9111 13.9371 18 14.2943 18C14.6515 18 14.9655 17.9111 15.2362 17.7333C15.507 17.5556 15.7202 17.3167 15.8757 17.0167C16.0313 16.7111 16.1091 16.3722 16.1091 16Z" stroke="black"/>
<path d="M23.5333 13.0833C23.6716 13.0833 23.784 13.1278 23.8704 13.2167C23.9568 13.3056 24 13.4167 24 13.55V18.4083C24 18.5528 23.9481 18.675 23.8444 18.775C23.7465 18.8694 23.6226 18.9167 23.4729 18.9167C23.398 18.9167 23.3202 18.9056 23.2395 18.8833C23.1646 18.8556 23.107 18.8194 23.0667 18.775L19.6705 14.6167L19.8952 14.4833V18.45C19.8952 18.5833 19.8491 18.6944 19.7569 18.7833C19.6705 18.8722 19.5553 18.9167 19.4112 18.9167C19.273 18.9167 19.1606 18.8722 19.0742 18.7833C18.9878 18.6944 18.9446 18.5833 18.9446 18.45V13.5917C18.9446 13.4472 18.9936 13.3278 19.0915 13.2333C19.1952 13.1333 19.322 13.0833 19.4717 13.0833C19.5524 13.0833 19.6359 13.1 19.7223 13.1333C19.8088 13.1611 19.8721 13.2056 19.9125 13.2667L23.205 17.3167L23.0581 17.4167V13.55C23.0581 13.4167 23.1013 13.3056 23.1877 13.2167C23.2741 13.1278 23.3893 13.0833 23.5333 13.0833Z" stroke="black"/>
</svg>
