<svg width="53" height="22" viewBox="0 0 53 22" fill="none" xmlns="http://www.w3.org/2000/svg">
<g style="mix-blend-mode:multiply">
<rect x="0.142822" width="52" height="22" rx="11" fill="#FEF3F2"/>
<circle cx="10.1428" cy="11" r="3" fill="#F04438"/>
<path d="M21.2481 15V6.27273H22.5649V13.8665H26.5194V15H21.2481ZM30.6764 15.1321C30.0627 15.1321 29.5272 14.9915 29.0698 14.7102C28.6125 14.429 28.2573 14.0355 28.0045 13.5298C27.7517 13.0241 27.6252 12.4332 27.6252 11.7571C27.6252 11.0781 27.7517 10.4844 28.0045 9.97585C28.2573 9.46733 28.6125 9.07244 29.0698 8.79119C29.5272 8.50994 30.0627 8.36932 30.6764 8.36932C31.29 8.36932 31.8255 8.50994 32.2829 8.79119C32.7403 9.07244 33.0954 9.46733 33.3483 9.97585C33.6011 10.4844 33.7275 11.0781 33.7275 11.7571C33.7275 12.4332 33.6011 13.0241 33.3483 13.5298C33.0954 14.0355 32.7403 14.429 32.2829 14.7102C31.8255 14.9915 31.29 15.1321 30.6764 15.1321ZM30.6806 14.0625C31.0784 14.0625 31.4079 13.9574 31.6693 13.7472C31.9306 13.5369 32.1238 13.2571 32.2488 12.9077C32.3767 12.5582 32.4406 12.1733 32.4406 11.7528C32.4406 11.3352 32.3767 10.9517 32.2488 10.6023C32.1238 10.25 31.9306 9.96733 31.6693 9.75426C31.4079 9.54119 31.0784 9.43466 30.6806 9.43466C30.2801 9.43466 29.9477 9.54119 29.6835 9.75426C29.4221 9.96733 29.2275 10.25 29.0997 10.6023C28.9747 10.9517 28.9122 11.3352 28.9122 11.7528C28.9122 12.1733 28.9747 12.5582 29.0997 12.9077C29.2275 13.2571 29.4221 13.5369 29.6835 13.7472C29.9477 13.9574 30.2801 14.0625 30.6806 14.0625ZM36.3696 15L34.4434 8.45455H35.7602L37.0429 13.2614H37.1068L38.3937 8.45455H39.7105L40.9889 13.2401H41.0528L42.3269 8.45455H43.6437L41.7218 15H40.4221L39.0926 10.2741H38.9946L37.665 15H36.3696Z" fill="#F04438"/>
</g>
</svg>
