<svg width="16" height="16" viewBox="0 0 16 16" fill="none" xmlns="http://www.w3.org/2000/svg">
    <g clip-path="url(#clip0_98_1822)">
        <path
            d="M8 8.5C9.38071 8.5 10.5 7.38071 10.5 6C10.5 4.61929 9.38071 3.5 8 3.5C6.61929 3.5 5.5 4.61929 5.5 6C5.5 7.38071 6.61929 8.5 8 8.5Z"
            stroke="white" stroke-linecap="round" stroke-linejoin="round" />
        <path
            d="M12.953 13.621C12.5058 12.6866 11.8035 11.8978 10.927 11.3456C10.0506 10.7934 9.03587 10.5004 8 10.5004C6.96413 10.5004 5.94938 10.7934 5.07296 11.3456C4.19653 11.8978 3.49417 12.6866 3.047 13.621"
            stroke="white" stroke-linecap="round" stroke-linejoin="round" />
        <path
            d="M8 15.5C12.1421 15.5 15.5 12.1421 15.5 8C15.5 3.85786 12.1421 0.5 8 0.5C3.85786 0.5 0.5 3.85786 0.5 8C0.5 12.1421 3.85786 15.5 8 15.5Z"
            stroke="white" stroke-linecap="round" stroke-linejoin="round" />
    </g>
    <defs>
        <clipPath id="clip0_98_1822">
            <rect width="16" height="16" fill="white" />
        </clipPath>
    </defs>
</svg>