<svg width="16" height="16" viewBox="0 0 16 16" fill="none" xmlns="http://www.w3.org/2000/svg">
    <g clip-path="url(#clip0_98_1827)">
        <path
            d="M8 10.5C9.38071 10.5 10.5 9.38071 10.5 8C10.5 6.61929 9.38071 5.5 8 5.5C6.61929 5.5 5.5 6.61929 5.5 8C5.5 9.38071 6.61929 10.5 8 10.5Z"
            stroke="white" stroke-miterlimit="10" stroke-linecap="round" stroke-linejoin="round" />
        <path
            d="M13.5 8C13.5 7.535 13.436 7.087 13.328 6.656L15.245 5.549L13.745 2.951L11.83 4.057C11.186 3.431 10.389 2.964 9.5 2.713V0.5H6.5V2.712C5.612 2.964 4.815 3.431 4.17 4.057L2.25501 2.951L0.755005 5.549L2.672 6.656C2.564 7.087 2.5 7.535 2.5 8C2.5 8.464 2.564 8.913 2.672 9.344L0.755005 10.451L2.25501 13.049L4.171 11.943C4.815 12.569 5.612 13.036 6.501 13.287V15.5H9.50101V13.288C10.39 13.036 11.186 12.569 11.831 11.944L13.747 13.05L15.247 10.452L13.33 9.345C13.436 8.913 13.5 8.464 13.5 8Z"
            stroke="white" stroke-miterlimit="10" stroke-linecap="round" stroke-linejoin="round" />
    </g>
    <defs>
        <clipPath id="clip0_98_1827">
            <rect width="16" height="16" fill="white" />
        </clipPath>
    </defs>
</svg>