<svg width="128" height="40" viewBox="0 0 128 40" fill="none" xmlns="http://www.w3.org/2000/svg">
<path opacity="0.5" d="M8.23864 7.79901V7.13636H11.7202V7.79901H10.3714V11.5H9.58736V7.79901H8.23864ZM12.4244 11.5H11.5806L13.1168 7.13636H14.0927L15.631 11.5H14.7873L13.6218 8.03125H13.5877L12.4244 11.5ZM12.4521 9.78906H14.7532V10.424H12.4521V9.78906ZM16.2058 11.5V7.13636H17.8762C18.1916 7.13636 18.4537 7.18608 18.6625 7.28551C18.8727 7.38352 19.0297 7.51776 19.1333 7.68821C19.2385 7.85866 19.291 8.05185 19.291 8.26776C19.291 8.44531 19.2569 8.5973 19.1887 8.72372C19.1206 8.84872 19.0289 8.95028 18.9139 9.02841C18.7988 9.10653 18.6703 9.16264 18.5282 9.19673V9.23935C18.6831 9.24787 18.8315 9.29545 18.9735 9.3821C19.117 9.46733 19.2342 9.58807 19.3251 9.74432C19.416 9.90057 19.4615 10.0895 19.4615 10.3111C19.4615 10.5369 19.4068 10.7401 19.2974 10.9205C19.188 11.0994 19.0233 11.2408 18.8031 11.3445C18.5829 11.4482 18.3059 11.5 17.9721 11.5H16.2058ZM16.9963 10.8395H17.8464C18.1333 10.8395 18.34 10.7848 18.4664 10.6754C18.5943 10.5646 18.6582 10.4226 18.6582 10.2493C18.6582 10.12 18.6262 10.0036 18.5623 9.89986C18.4984 9.79474 18.4075 9.71236 18.2896 9.6527C18.1717 9.59162 18.0311 9.56108 17.8677 9.56108H16.9963V10.8395ZM16.9963 8.99219H17.7782C17.9146 8.99219 18.0375 8.96733 18.1468 8.91761C18.2562 8.86648 18.3422 8.79474 18.4047 8.70241C18.4686 8.60866 18.5005 8.49787 18.5005 8.37003C18.5005 8.20099 18.4409 8.06179 18.3216 7.95241C18.2037 7.84304 18.0282 7.78835 17.7953 7.78835H16.9963V8.99219ZM20.1491 11.5V7.13636H20.9396V10.8374H22.8615V11.5H20.1491ZM23.5476 11.5V7.13636H26.3857V7.79901H24.3381V8.98366H26.2386V9.64631H24.3381V10.8374H26.4027V11.5H23.5476ZM29.2642 7.13636L30.3999 10.571H30.4446L31.5781 7.13636H32.4474L30.9091 11.5H29.9332L28.397 7.13636H29.2642ZM33.8127 7.13636V11.5H33.0222V7.13636H33.8127ZM34.6687 11.5V7.13636H37.5067V7.79901H35.4592V8.98366H37.3597V9.64631H35.4592V10.8374H37.5238V11.5H34.6687ZM39.2315 11.5L38 7.13636H38.8501L39.6364 10.343H39.6768L40.5163 7.13636H41.2898L42.1314 10.3452H42.1697L42.956 7.13636H43.8061L42.5746 11.5H41.7947L40.9212 8.43821H40.8871L40.0114 11.5H39.2315Z" fill="#333333"/>
<g clip-path="url(#clip0_201_24571)">
<path d="M21.2893 26.9548H10.7108C10.4187 26.9548 10.1819 27.2339 10.1819 27.5782V30.6951C10.1819 31.0394 10.4187 31.3185 10.7108 31.3185H21.2893C21.5814 31.3185 21.8183 31.0394 21.8183 30.6951V27.5782C21.8183 27.2339 21.5814 26.9548 21.2893 26.9548Z" fill="#757575" stroke="#757575" stroke-width="0.888889" stroke-linecap="round" stroke-linejoin="round"/>
<path d="M21.2893 19.6814H10.7108C10.4187 19.6814 10.1819 19.9605 10.1819 20.3048V23.4217C10.1819 23.7659 10.4187 24.045 10.7108 24.045H21.2893C21.5814 24.045 21.8183 23.7659 21.8183 23.4217V20.3048C21.8183 19.9605 21.5814 19.6814 21.2893 19.6814Z" fill="#757575" stroke="#757575" stroke-width="0.888889" stroke-linecap="round" stroke-linejoin="round"/>
</g>
<path d="M35.8295 22.9545C35.7784 22.5227 35.571 22.1875 35.2074 21.9489C34.8438 21.7102 34.3977 21.5909 33.8693 21.5909C33.483 21.5909 33.1449 21.6534 32.8551 21.7784C32.5682 21.9034 32.3438 22.0753 32.1818 22.294C32.0227 22.5128 31.9432 22.7614 31.9432 23.0398C31.9432 23.2727 31.9986 23.473 32.1094 23.6406C32.223 23.8054 32.3679 23.9432 32.544 24.054C32.7202 24.1619 32.9048 24.2514 33.098 24.3224C33.2912 24.3906 33.4688 24.446 33.6307 24.4886L34.517 24.7273C34.7443 24.7869 34.9972 24.8693 35.2756 24.9744C35.5568 25.0795 35.8253 25.223 36.081 25.4048C36.3395 25.5838 36.5526 25.8139 36.7202 26.0952C36.8878 26.3764 36.9716 26.7216 36.9716 27.1307C36.9716 27.6023 36.848 28.0284 36.6009 28.4091C36.3565 28.7898 35.9986 29.0923 35.527 29.3168C35.0582 29.5412 34.4886 29.6534 33.8182 29.6534C33.1932 29.6534 32.652 29.5526 32.1946 29.3509C31.7401 29.1491 31.3821 28.8679 31.1207 28.5071C30.8622 28.1463 30.7159 27.7273 30.6818 27.25H31.7727C31.8011 27.5795 31.9119 27.8523 32.1051 28.0682C32.3011 28.2812 32.5483 28.4403 32.8466 28.5455C33.1477 28.6477 33.4716 28.6989 33.8182 28.6989C34.2216 28.6989 34.5838 28.6335 34.9048 28.5028C35.2259 28.3693 35.4801 28.1847 35.6676 27.9489C35.8551 27.7102 35.9489 27.4318 35.9489 27.1136C35.9489 26.8239 35.8679 26.5881 35.706 26.4062C35.544 26.2244 35.331 26.0767 35.0668 25.9631C34.8026 25.8494 34.517 25.75 34.2102 25.6648L33.1364 25.358C32.4545 25.1619 31.9148 24.8821 31.517 24.5185C31.1193 24.1548 30.9205 23.679 30.9205 23.0909C30.9205 22.6023 31.0526 22.1761 31.3168 21.8125C31.5838 21.446 31.9418 21.1619 32.3906 20.9602C32.8423 20.7557 33.3466 20.6534 33.9034 20.6534C34.4659 20.6534 34.9659 20.7543 35.4034 20.956C35.8409 21.1548 36.1875 21.4276 36.4432 21.7741C36.7017 22.1207 36.8381 22.5142 36.8523 22.9545H35.8295ZM38.7319 21.7102V20.7727H45.2773V21.7102H42.533V29.5H41.4762V21.7102H38.7319ZM46.7468 29.5H45.6388L48.8434 20.7727H49.9343L53.1388 29.5H52.0309L49.4229 22.1534H49.3548L46.7468 29.5ZM47.1559 26.0909H51.6218V27.0284H47.1559V26.0909ZM61.9187 20.7727V29.5H60.896L56.1403 22.6477H56.055V29.5H54.9982V20.7727H56.021L60.7937 27.642H60.8789V20.7727H61.9187ZM67.2266 29.5H64.5334V20.7727H67.3459C68.1925 20.7727 68.9169 20.9474 69.5192 21.2969C70.1214 21.6435 70.5831 22.142 70.9041 22.7926C71.2251 23.4403 71.3857 24.2159 71.3857 25.1193C71.3857 26.0284 71.2237 26.8111 70.8999 27.4673C70.576 28.1207 70.1044 28.6236 69.4851 28.9759C68.8658 29.3253 68.1129 29.5 67.2266 29.5ZM65.5902 28.5625H67.1584C67.88 28.5625 68.478 28.4233 68.9524 28.1449C69.4268 27.8665 69.7805 27.4702 70.0135 26.956C70.2464 26.4418 70.3629 25.8295 70.3629 25.1193C70.3629 24.4148 70.2479 23.8082 70.0178 23.2997C69.7876 22.7884 69.4439 22.3963 68.9865 22.1236C68.5291 21.848 67.9595 21.7102 67.2777 21.7102H65.5902V28.5625ZM73.6062 29.5H72.4982L75.7028 20.7727H76.7937L79.9982 29.5H78.8903L76.2823 22.1534H76.2141L73.6062 29.5ZM74.0153 26.0909H78.4812V27.0284H74.0153V26.0909ZM81.8576 29.5V20.7727H84.8065C85.4883 20.7727 86.0479 20.8892 86.4854 21.1222C86.9229 21.3523 87.2468 21.669 87.457 22.0724C87.6673 22.4759 87.7724 22.9347 87.7724 23.4489C87.7724 23.9631 87.6673 24.419 87.457 24.8168C87.2468 25.2145 86.9244 25.527 86.4897 25.7543C86.055 25.9787 85.4996 26.0909 84.8235 26.0909H82.4371V25.1364H84.7894C85.2553 25.1364 85.6303 25.0682 85.9144 24.9318C86.2013 24.7955 86.4087 24.6023 86.5366 24.3523C86.6673 24.0994 86.7326 23.7983 86.7326 23.4489C86.7326 23.0994 86.6673 22.794 86.5366 22.5327C86.4059 22.2713 86.1971 22.0696 85.9102 21.9276C85.6232 21.7827 85.244 21.7102 84.7724 21.7102H82.9144V29.5H81.8576ZM85.9656 25.5795L88.1133 29.5H86.886L84.7724 25.5795H85.9656ZM92.7266 29.5H90.0334V20.7727H92.8459C93.6925 20.7727 94.4169 20.9474 95.0192 21.2969C95.6214 21.6435 96.0831 22.142 96.4041 22.7926C96.7251 23.4403 96.8857 24.2159 96.8857 25.1193C96.8857 26.0284 96.7237 26.8111 96.3999 27.4673C96.076 28.1207 95.6044 28.6236 94.9851 28.9759C94.3658 29.3253 93.6129 29.5 92.7266 29.5ZM91.0902 28.5625H92.6584C93.38 28.5625 93.978 28.4233 94.4524 28.1449C94.9268 27.8665 95.2805 27.4702 95.5135 26.956C95.7464 26.4418 95.8629 25.8295 95.8629 25.1193C95.8629 24.4148 95.7479 23.8082 95.5178 23.2997C95.2876 22.7884 94.9439 22.3963 94.4865 22.1236C94.0291 21.848 93.4595 21.7102 92.7777 21.7102H91.0902V28.5625Z" fill="#333333"/>
<path d="M107.5 24L112 28.5L116.5 24" stroke="#262626" stroke-miterlimit="10" stroke-linecap="round" stroke-linejoin="round"/>
<path d="M8 36H119.99" stroke="#F2F2F2" stroke-linecap="square"/>
<defs>
<clipPath id="clip0_201_24571">
<rect width="16" height="16" fill="white" transform="translate(8 17.5)"/>
</clipPath>
</defs>
</svg>



