<svg width="22" height="22" viewBox="0 0 22 22" fill="none" xmlns="http://www.w3.org/2000/svg">
<path d="M6.50892 13.4962C6.42237 13.403 6.31689 13.3564 6.19248 13.3564C6.04102 13.3564 5.90849 13.4315 5.7949 13.5816L4.39736 15.3581L2.97126 13.5428C2.86307 13.4081 2.73055 13.3408 2.57368 13.3408C2.45467 13.3408 2.34108 13.3874 2.23289 13.4807C2.13012 13.5687 2.07873 13.68 2.07873 13.8147C2.07873 13.9183 2.11389 14.0115 2.18421 14.0944L3.747 16.0837L2.18421 18.1106C2.10307 18.209 2.0625 18.3152 2.0625 18.4291C2.0625 18.5327 2.10577 18.6285 2.19232 18.7165C2.27887 18.7994 2.38165 18.8408 2.50065 18.8408C2.66293 18.8408 2.79816 18.7683 2.90635 18.6233L4.3105 16.801L5.75433 18.6388C5.86251 18.7735 5.99504 18.8408 6.15191 18.8408C6.2601 18.8408 6.36828 18.7994 6.47647 18.7165C6.58465 18.6337 6.63875 18.5197 6.63875 18.3747C6.63875 18.266 6.60629 18.1702 6.54138 18.0873L4.95718 16.0707L6.54138 14.071C6.6117 13.983 6.64686 13.8898 6.64686 13.7914C6.64686 13.6878 6.60088 13.5894 6.50892 13.4962ZM9.04539 13.4185C8.96425 13.3771 8.88581 13.3564 8.81008 13.3564C8.66944 13.3564 8.54773 13.403 8.44496 13.4962C8.34759 13.5894 8.29891 13.7008 8.29891 13.8302V18.3281C8.29891 18.4628 8.34218 18.5767 8.42873 18.6699C8.51528 18.758 8.62617 18.802 8.7614 18.802C8.90204 18.802 9.01564 18.758 9.10218 18.6699C9.18873 18.5767 9.23201 18.4628 9.23201 18.3281V15.1284L10.5708 17.1551C10.6195 17.2121 10.679 17.2613 10.7493 17.3027C10.825 17.3441 10.8981 17.3622 10.9684 17.3571C11.0441 17.3622 11.1171 17.3441 11.1875 17.3027C11.2632 17.2613 11.3254 17.2121 11.3741 17.1551L12.7129 15.201V18.3281C12.7129 18.4628 12.7589 18.5767 12.8508 18.6699C12.9482 18.758 13.0726 18.802 13.224 18.802C13.3755 18.802 13.4972 18.758 13.5892 18.6699C13.6811 18.5767 13.7271 18.4628 13.7271 18.3281V13.8302C13.7271 13.6904 13.6757 13.5765 13.5729 13.4884C13.4702 13.4004 13.3539 13.3564 13.224 13.3564C13.0618 13.3564 12.9292 13.4263 12.8265 13.5661L11.0066 16.1691L9.24012 13.5661C9.19685 13.504 9.13193 13.4548 9.04539 13.4185ZM18.7551 17.8931C18.8957 17.8931 19.012 17.9371 19.104 18.0251C19.2013 18.108 19.25 18.2168 19.25 18.3514C19.25 18.4809 19.2013 18.5896 19.104 18.6777C19.012 18.7605 18.8957 18.802 18.7551 18.802H16.118C15.9774 18.802 15.8584 18.758 15.761 18.6699C15.6691 18.5767 15.6231 18.4628 15.6231 18.3281V13.838C15.6231 13.7033 15.6718 13.592 15.7691 13.504C15.8665 13.4107 15.9909 13.3641 16.1424 13.3641C16.2722 13.3641 16.3858 13.4107 16.4832 13.504C16.5859 13.592 16.6373 13.7033 16.6373 13.838V17.8931H18.7551Z" fill="black"/>
<path d="M6.50892 13.4962C6.42237 13.403 6.31689 13.3564 6.19248 13.3564C6.04102 13.3564 5.90849 13.4315 5.7949 13.5816L4.39736 15.3581L2.97126 13.5428C2.86307 13.4081 2.73055 13.3408 2.57368 13.3408C2.45467 13.3408 2.34108 13.3874 2.23289 13.4807C2.13012 13.5687 2.07873 13.68 2.07873 13.8147C2.07873 13.9183 2.11389 14.0115 2.18421 14.0944L3.747 16.0837L2.18421 18.1106C2.10307 18.209 2.0625 18.3152 2.0625 18.4291C2.0625 18.5327 2.10577 18.6285 2.19232 18.7165C2.27887 18.7994 2.38165 18.8408 2.50065 18.8408C2.66293 18.8408 2.79816 18.7683 2.90635 18.6233L4.3105 16.801L5.75433 18.6388C5.86251 18.7735 5.99504 18.8408 6.15191 18.8408C6.2601 18.8408 6.36828 18.7994 6.47647 18.7165C6.58465 18.6337 6.63875 18.5197 6.63875 18.3747C6.63875 18.266 6.60629 18.1702 6.54138 18.0873L4.95718 16.0707L6.54138 14.071C6.6117 13.983 6.64686 13.8898 6.64686 13.7914C6.64686 13.6878 6.60088 13.5894 6.50892 13.4962ZM9.04539 13.4185C8.96425 13.3771 8.88581 13.3564 8.81008 13.3564C8.66944 13.3564 8.54773 13.403 8.44496 13.4962C8.34759 13.5894 8.29891 13.7008 8.29891 13.8302V18.3281C8.29891 18.4628 8.34218 18.5767 8.42873 18.6699C8.51528 18.758 8.62617 18.802 8.7614 18.802C8.90204 18.802 9.01564 18.758 9.10218 18.6699C9.18873 18.5767 9.23201 18.4628 9.23201 18.3281V15.1284L10.5708 17.1551C10.6195 17.2121 10.679 17.2613 10.7493 17.3027C10.825 17.3441 10.8981 17.3622 10.9684 17.3571C11.0441 17.3622 11.1171 17.3441 11.1875 17.3027C11.2632 17.2613 11.3254 17.2121 11.3741 17.1551L12.7129 15.201V18.3281C12.7129 18.4628 12.7589 18.5767 12.8508 18.6699C12.9482 18.758 13.0726 18.802 13.224 18.802C13.3755 18.802 13.4972 18.758 13.5892 18.6699C13.6811 18.5767 13.7271 18.4628 13.7271 18.3281V13.8302C13.7271 13.6904 13.6757 13.5765 13.5729 13.4884C13.4702 13.4004 13.3539 13.3564 13.224 13.3564C13.0618 13.3564 12.9292 13.4263 12.8265 13.5661L11.0066 16.1691L9.24012 13.5661C9.19685 13.504 9.13193 13.4548 9.04539 13.4185ZM18.7551 17.8931C18.8957 17.8931 19.012 17.9371 19.104 18.0251C19.2013 18.108 19.25 18.2168 19.25 18.3514C19.25 18.4809 19.2013 18.5896 19.104 18.6777C19.012 18.7605 18.8957 18.802 18.7551 18.802H16.118C15.9774 18.802 15.8584 18.758 15.761 18.6699C15.6691 18.5767 15.6231 18.4628 15.6231 18.3281V13.838C15.6231 13.7033 15.6718 13.592 15.7691 13.504C15.8665 13.4107 15.9909 13.3641 16.1424 13.3641C16.2722 13.3641 16.3858 13.4107 16.4832 13.504C16.5859 13.592 16.6373 13.7033 16.6373 13.838V17.8931H18.7551Z" stroke="black"/>
<path d="M4.125 11V3.4375C4.125 3.25516 4.19743 3.0803 4.32636 2.95136C4.4553 2.82243 4.63016 2.75 4.8125 2.75H13.0625L17.875 7.5625V11" stroke="black" stroke-linecap="round" stroke-linejoin="round"/>
<path d="M13.0625 2.75V7.5625H17.875" stroke="black" stroke-linecap="round" stroke-linejoin="round"/>
</svg>
